<svg xmlns="http://www.w3.org/2000/svg" xmlns:xlink="http://www.w3.org/1999/xlink" viewBox="0 0 501 501"><defs><style>.cls-1{fill:#f27bab;}.cls-2{isolation:isolate;}.cls-3{clip-path:url(#clip-path);}.cls-4{clip-path:url(#clip-path-2);}.cls-5{clip-path:url(#clip-path-3);}.cls-6{fill:#383c3f;}.cls-7{fill:#92979b;opacity:0.62;}.cls-13,.cls-16,.cls-7{mix-blend-mode:multiply;}.cls-8{fill:#4f4f84;}.cls-14,.cls-18,.cls-9{fill:none;stroke-miterlimit:10;}.cls-9{stroke:#3d3d72;stroke-width:3px;}.cls-10{fill:#333368;}.cls-11{fill:#e89989;}.cls-12,.cls-13{fill:#f1b69a;}.cls-13{opacity:0.3;}.cls-14{stroke:#e07e61;stroke-linecap:round;}.cls-14,.cls-18{stroke-width:2.28px;}.cls-15{fill:#150a08;}.cls-16{fill:#292b2d;}.cls-17{fill:#2b2e31;}.cls-18{stroke:#fff;}.cls-19{fill:#fff;}</style><clipPath id="clip-path"/><clipPath id="clip-path-2"><circle class="cls-1" cx="-261.25" cy="245.15" r="248.25"/></clipPath><clipPath id="clip-path-3"><circle class="cls-1" cx="252.17" cy="250.94" r="248.25"/></clipPath></defs><title>Artboard 6</title><g class="cls-2"><g id="Layer_17" data-name="Layer 17"><g id="Layer_18" data-name="Layer 18"><g class="cls-3"><g id="Layer_16" data-name="Layer 16"><g id="Layer_8" data-name="Layer 8"><circle class="cls-1" cx="763.4" cy="253.24" r="248.25"/></g><g id="Layer_9" data-name="Layer 9"><circle class="cls-1" cx="-261.25" cy="245.15" r="248.25"/></g><g id="Layer_3" data-name="Layer 3"><circle class="cls-1" cx="256.62" cy="766.69" r="248.25"/></g><g id="Layer_5" data-name="Layer 5"><circle class="cls-1" cx="252.17" cy="250.94" r="248.25"/><g class="cls-5"><path class="cls-6" d="M348.94,222.49c-9.31,48.9-72.11,96.52-72.11,96.52L156.56,224.56c-31.74-25-23.08-41.61-8.45-43.61,0,0-25.26-27.27-8.64-53.21s60.33-53.18,93-45.22c31.32,7.66,2.61,18.37.16,19.26C236,101,289.26,88.72,317,115.12c28.62,27.27,2.68,31.92,2.68,31.92a79.36,79.36,0,0,1,23.49,28.83C348.94,187.86,352.55,203.49,348.94,222.49Z"/><path class="cls-7" d="M348.94,222.49c-9.31,48.9-72.11,96.52-72.11,96.52L156.56,224.56c-31.74-25-23.08-41.61-8.45-43.61,17.53,12.29,36.18-23.05,67.64-20.3s87.09,41.94,127.41,15.23C348.94,187.86,352.55,203.49,348.94,222.49Z"/><path class="cls-8" d="M413,499.73H132.11S128.94,442.82,162,396.38c34.23-48.16,73.61-46.21,73.61-46.21,0,44.25,51.83,49.14,59.48,0,0,0,60.89-2.82,98.63,57.68C413.39,439.48,413,499.73,413,499.73Z"/><path class="cls-9" d="M344,405.49c-29.72,15.5-21.51,94.23-21.51,94.23"/><path class="cls-9" d="M180.05,412.79c-15.27,31-11.81,86.94-11.81,86.94"/><path class="cls-10" d="M290.17,335c47.16,3.06,63.42,24.2,61.29,34.19s-44.16,11.81-61.29,32c-21.84,25.78-48.61,20.8-54.61,0-7.25-25.13-42.34-23.31-46.25-33.43S215.76,330.16,290.17,335Z"/><path class="cls-11" d="M168.24,248.59c-4.1-35.24-24-27.69-25.19-5s11.13,50.34,25.19,46.15Z"/><path class="cls-12" d="M295,284.76v65.41c-7.64,49.14-59.48,44.25-59.48,0v-36Z"/><path class="cls-13" d="M295,284.76v30.64A107.88,107.88,0,0,1,284.5,326c-12.32,10.78-30.48,17.37-48.94,17.7V314.17Z"/><path class="cls-12" d="M157.29,212.14c-1.76,22.28-3.53,74.29,22.76,105s67.33,28,92.45,6c16.9-14.77,37-48.68,36-83.6-1.32-43.76-21.37-57-53.14-64.1S160.23,174.89,157.29,212.14Z"/><path class="cls-13" d="M208.67,279.52c10.63,3.79,16.09-5.89,20.65-3s-3.73,14.7-15.38,7.76C208.72,281.16,205.58,278.42,208.67,279.52Z"/><path class="cls-12" d="M296.54,248.59c6.64-35.24,38.86-27.69,40.76-5s-18,50.34-40.76,46.15Z"/><path class="cls-13" d="M305.18,250.94c7.22-15,22.1-15.15,22.72-3.58S310.8,276.55,305.18,276,305.18,250.94,305.18,250.94Z"/><path class="cls-14" d="M305.18,253.69c3.86-14.51,15.76-17.23,20.58-11.85s.76,16.88-2.39,20.75"/><ellipse class="cls-15" cx="192.55" cy="250.89" rx="6.06" ry="10.66"/><path class="cls-6" d="M195.64,220.92c-6.43-5.93-15.82-4.69-15.58,3.2S193,228.81,197,227.55C200.25,226.54,197.73,222.85,195.64,220.92Z"/><ellipse class="cls-15" cx="255.43" cy="250.89" rx="6.06" ry="10.66"/><path class="cls-6" d="M244.73,218.7c9.52-4.68,23.72-1.34,23.6,6.72s-19.31,2-25.45-.21C238,223.45,241.64,220.22,244.73,218.7Z"/><path class="cls-14" d="M214.25,261.54c-1.1,12.61-6.54,10.45-5.44,15.56s3.8,6,6.95,7.66"/><path class="cls-14" d="M208.67,293.36c14.53,1.57,35-2.75,39.28-7.86"/><path class="cls-13" d="M219,303.36c8.88-.55,15.84-4,19.63-3.23s-.13,9.94-6,11.31C220.61,314.26,213.34,303.71,219,303.36Z"/><path class="cls-16" d="M308.53,227.26c-12.81,9.29-8.45,19.21-12,18.33-2.85-.74-4-35.5-15.16-53.25-2.6-4.15-5.74-7.37-9.57-9,5.73-6.59,9.45-15.46,11.69-22.4C306.6,188,308.53,227.26,308.53,227.26Z"/><path class="cls-17" d="M276.88,191.78c5.88,7.25,11,13.63,13.62,35.13s8,25,8.25,18.73,5.5-15.61,12.13-20.48,3.25-20.62,3-21.87-19.18-34.88-23-36.25-5,1.25-5,1.25Z"/><path class="cls-6" d="M173.6,157.68c-13.57,48.25,63.48,57.94,76.3,54.24s8-8.64,8-8.64,23,3.71,32.23-26.6-68.11-43.61-92.94-35S175.8,149.86,173.6,157.68Z"/><line class="cls-18" x1="275.77" y1="405.49" x2="281.03" y2="474.95"/><line class="cls-18" x1="240.13" y1="401.22" x2="228.31" y2="469.03"/><circle class="cls-19" cx="228.31" cy="472.32" r="5.91"/><circle class="cls-19" cx="281.03" cy="472.32" r="5.91"/></g></g><g id="Layer_6" data-name="Layer 6"><circle class="cls-1" cx="-252.26" cy="766.69" r="248.25"/></g><g id="Layer_7" data-name="Layer 7"><circle class="cls-1" cx="769.39" cy="781.39" r="248.25"/></g></g></g></g></g></g></svg>