<svg xmlns="http://www.w3.org/2000/svg" xmlns:xlink="http://www.w3.org/1999/xlink" viewBox="0 0 501 501"><defs><style>.cls-1{fill:#f27bab;}.cls-2{isolation:isolate;}.cls-3{clip-path:url(#clip-path);}.cls-4{clip-path:url(#clip-path-2);}.cls-5{clip-path:url(#clip-path-3);}.cls-6{fill:#4f4f84;}.cls-14,.cls-7{fill:none;stroke-miterlimit:10;}.cls-7{stroke:#3d3d72;stroke-width:3px;}.cls-8{fill:#fff;}.cls-10,.cls-9{fill:#383c3f;}.cls-10,.cls-13{opacity:0.3;mix-blend-mode:multiply;}.cls-11{fill:#e89989;}.cls-12,.cls-13{fill:#f1b69a;}.cls-14{stroke:#e07e61;stroke-linecap:round;stroke-width:2.29px;}.cls-15{fill:#150a08;}</style><clipPath id="clip-path"/><clipPath id="clip-path-2"><circle class="cls-1" cx="-780.32" cy="-283.54" r="248.25"/></clipPath><clipPath id="clip-path-3"><circle class="cls-1" cx="250.31" cy="252.69" r="248.25"/></clipPath></defs><title>Artboard 5</title><g class="cls-2"><g id="Layer_17" data-name="Layer 17"><g id="Layer_18" data-name="Layer 18"><g class="cls-3"><g id="Layer_16" data-name="Layer 16"><g id="Layer_8" data-name="Layer 8"><circle class="cls-1" cx="244.32" cy="-275.46" r="248.25"/></g><g id="Layer_9" data-name="Layer 9"><circle class="cls-1" cx="-780.32" cy="-283.54" r="248.25"/></g><g id="Layer_3" data-name="Layer 3"><circle class="cls-1" cx="-262.46" cy="237.99" r="248.25"/></g><g id="Layer_5" data-name="Layer 5"><circle class="cls-1" cx="-266.91" cy="-277.76" r="248.25"/></g><g id="Layer_6" data-name="Layer 6"><circle class="cls-1" cx="-771.34" cy="237.99" r="248.25"/></g><g id="Layer_7" data-name="Layer 7"><circle class="cls-1" cx="250.31" cy="252.69" r="248.25"/><g class="cls-5"><path class="cls-6" d="M428.91,500.43H147.33s-3.18-57.05,29.91-103.61C211.56,348.54,251,350.49,251,350.49c0,44.36,52,49.27,59.63,0,0,0,61-2.82,98.88,57.82C429.33,440,428.91,500.43,428.91,500.43Z"/><path class="cls-7" d="M359.76,406C330,421.5,338.2,500.43,338.2,500.43"/><path class="cls-7" d="M195.39,413.27c-15.31,31.07-11.84,87.16-11.84,87.16"/><path class="cls-8" d="M329.79,352.36c-5.58,41.35-36.23,53.67-54.82,52.7s-46.13-21.85-40.51-52C234.46,353,293,337.48,329.79,352.36Z"/><path class="cls-9" d="M312.18,289.87c101.28-86.64,39.34-147.33,20.49-135.6,0,0,2.37-43.58-51.82-57s-63.14,2.51-53.22,10.89c0,0-42.33-10.06-69.42,10.89s3.08,16.54,3.08,16.54-25.14,11.24-28.49,37.16,33.52,34.3,33.52,34.3S155,226.64,175.17,272,264.51,330.65,312.18,289.87Z"/><path class="cls-10" d="M314.42,285.67c-47.94,40.49-119,31.69-139.26-13.67s-8.85-64.92-8.85-64.92-36.86-8.38-33.52-34.29a42.68,42.68,0,0,1,4.81-14.89c10.11,6.54,26.19,13.52,45.94,10.27,34.39-5.63,65.39-12.58,90.32-16.1s41.88,37.6,58.8,2.21C351.53,142.53,412.32,203,314.42,285.67Z"/><path class="cls-11" d="M183.55,248.65c-4.11-35.33-24.08-27.76-25.26-5s11.16,50.47,25.26,46.27Z"/><path class="cls-12" d="M310.67,284.92v65.58c-7.66,49.27-59.63,44.36-59.63,0v-36.1Z"/><path class="cls-13" d="M310.66,284.92v30.72a108.15,108.15,0,0,1-10.55,10.62C287.76,337.07,269.55,343.68,251,344V314.4Z"/><path class="cls-12" d="M172.57,212.11c-1.76,22.34-3.54,74.48,22.82,105.23s67.51,28.06,92.69,6c16.94-14.81,37.14-48.8,36.08-83.81-1.32-43.87-21.42-57.12-53.28-64.26S175.52,174.77,172.57,212.11Z"/><path class="cls-13" d="M224.08,279.66c10.66,3.8,16.13-5.9,20.7-3s-3.74,14.73-15.42,7.78C224.14,281.31,221,278.56,224.08,279.66Z"/><path class="cls-12" d="M312.18,248.65c6.65-35.33,39-27.76,40.86-5S335,294.08,312.18,289.87Z"/><path class="cls-13" d="M320.84,251c7.24-15.08,22.16-15.19,22.78-3.59s-17.15,29.27-22.78,28.68S320.84,251,320.84,251Z"/><path class="cls-14" d="M320.84,253.76c3.87-14.54,15.8-17.27,20.63-11.88s.76,16.92-2.39,20.8"/><ellipse class="cls-15" cx="207.92" cy="250.96" rx="6.07" ry="10.69"/><path class="cls-9" d="M211,220.92c-6.45-5.95-15.86-4.71-15.62,3.21s12.93,4.7,17,3.44C215.64,226.55,213.11,222.85,211,220.92Z"/><ellipse class="cls-15" cx="270.96" cy="250.96" rx="6.07" ry="10.69"/><path class="cls-9" d="M260.24,218.68c9.54-4.69,23.78-1.35,23.66,6.73s-19.36,2-25.52-.21C253.44,223.45,257.14,220.21,260.24,218.68Z"/><path class="cls-14" d="M229.68,261.64c-1.11,12.65-6.56,10.47-5.45,15.6s3.81,6,7,7.68"/><path class="cls-14" d="M224.08,293.54c14.57,1.58,35-2.76,39.38-7.88"/><path class="cls-13" d="M234.44,303.56c8.9-.55,15.88-4,19.68-3.24s-.13,10-6,11.34C236.06,314.49,228.76,303.91,234.44,303.56Z"/><path class="cls-9" d="M299.1,160.76c-2.24,7-6,15.85-11.72,22.46,0,0-18.49,20.36-43.61,23.53-23.55,3-14-10-12.72-11.6-1.68,1.61-19.24,18.4-38.63,21.92-18.12,3.29-8.31-12.42-5.91-16-2.8,3.92-17,22.32-31.63,13.35-16.27-10,0-74.66,82.31-78.72C266.68,134.29,286.19,145.61,299.1,160.76Z"/><path class="cls-9" d="M324.2,227.27c-12.84,9.31-8.47,19.26-12,18.37s-4.53-53.76-24.79-62.42c5.74-6.61,9.48-15.5,11.72-22.46C322.26,187.88,324.2,227.27,324.2,227.27Z"/><path class="cls-10" d="M324.2,227.27c-12.84,9.31-8.47,19.26-12,18.37s-4.53-53.76-24.79-62.42c5.74-6.61,9.48-15.5,11.72-22.46C322.26,187.88,324.2,227.27,324.2,227.27Z"/><circle class="cls-8" cx="309.86" cy="460.39" r="16.31"/></g></g></g></g></g></g></g></svg>