<svg xmlns="http://www.w3.org/2000/svg" xmlns:xlink="http://www.w3.org/1999/xlink" viewBox="0 0 501 501"><defs><style>.cls-1{fill:#f27bab;}.cls-2{isolation:isolate;}.cls-3{clip-path:url(#clip-path);}.cls-4{clip-path:url(#clip-path-2);}.cls-5{fill:#383c3f;}.cls-6{fill:#4f4f84;}.cls-7{fill:#7979aa;}.cls-8{fill:#fff;}.cls-13,.cls-9{fill:none;stroke-miterlimit:10;}.cls-9{stroke:#3d3d72;stroke-width:3px;}.cls-10{fill:#e89989;}.cls-11,.cls-12{fill:#f1b69a;}.cls-12{opacity:0.3;mix-blend-mode:multiply;}.cls-13{stroke:#e07e61;stroke-linecap:round;stroke-width:2.38px;}.cls-14{fill:#150a08;}.cls-15{fill:#895a5c;}.cls-16{fill:#2b2e31;}</style><clipPath id="clip-path"/><clipPath id="clip-path-2"><circle class="cls-1" cx="250.25" cy="248.25" r="248.25"/></clipPath></defs><title>Artboard 8</title><g class="cls-2"><g id="Layer_17" data-name="Layer 17"><g id="Layer_18" data-name="Layer 18"><g class="cls-3"><g id="Layer_16" data-name="Layer 16"><g id="Layer_8" data-name="Layer 8"><circle class="cls-1" cx="1274.89" cy="256.34" r="248.25"/></g><g id="Layer_9" data-name="Layer 9"><circle class="cls-1" cx="250.25" cy="248.25" r="248.25"/><g class="cls-4"><g id="Layer_4" data-name="Layer 4"><path class="cls-5" d="M291.46,304.05c39.85-17.75,67.61-69,57.13-124S297.67,86.27,228.54,98.08c-42.19,7.2-93.67,43.79-79,120S291.46,304.05,291.46,304.05Z"/><path class="cls-6" d="M420.41,499.49H128.15s-3.3-59.21,31-107.54c35.62-50.11,76.59-48.09,76.59-48.09,0,46,53.94,51.14,61.89,0,0,0,63.37-2.93,102.63,60C420.84,436.8,420.41,499.49,420.41,499.49Z"/><path class="cls-7" d="M303.49,333.15c26.49,6.88,11,60.64-33.59,63.65s-56-31.1-38.54-53S303.49,333.15,303.49,333.15Z"/><path class="cls-8" d="M332,423.81c-3.42,9.67-5.21,21-6.08,32-38.94,1.19-123.06,2.69-158.63-5a182.87,182.87,0,0,1,3.88-22.07C242,438.59,307.61,428.48,332,423.81Z"/><path class="cls-9" d="M348.64,401.43c-30.92,16.13-22.38,98.06-22.38,98.06"/><path class="cls-9" d="M178,409c-15.89,32.25-12.29,90.47-12.29,90.47"/><path class="cls-10" d="M165.74,238.16c-4.27-36.67-25-28.81-26.21-5.24s11.58,52.39,26.21,48Z"/><path class="cls-11" d="M297.68,275.8v68.06c-8,51.14-61.89,46-61.89,0V306.39Z"/><path class="cls-12" d="M297.67,275.8v31.89a112.23,112.23,0,0,1-11,11c-12.82,11.22-31.72,18.08-50.93,18.41V306.4Z"/><path class="cls-11" d="M154.35,200.23c-1.83,23.18-3.68,77.3,23.69,109.23s70.07,29.12,96.2,6.27c17.58-15.37,38.55-50.65,37.45-87-1.37-45.53-22.23-59.29-55.3-66.7S157.41,161.47,154.35,200.23Z"/><path class="cls-12" d="M207.81,270.34c11.06,3.95,16.74-6.13,21.48-3.13s-3.88,15.29-16,8.07C207.87,272.06,204.6,269.2,207.81,270.34Z"/><path class="cls-11" d="M299.25,238.16c6.9-36.67,40.44-28.81,42.41-5.24s-18.74,52.39-42.41,48Z"/><path class="cls-12" d="M308.24,240.6c7.51-15.65,23-15.76,23.64-3.72s-17.8,30.38-23.64,29.77S308.24,240.6,308.24,240.6Z"/><path class="cls-13" d="M308.24,243.46c4-15.09,16.4-17.93,21.41-12.33s.79,17.57-2.49,21.59"/><ellipse class="cls-14" cx="191.04" cy="240.55" rx="6.3" ry="11.09"/><path class="cls-5" d="M194.25,209.37c-6.69-6.17-16.46-4.88-16.21,3.33s13.42,4.88,17.63,3.57C199,215.21,196.43,211.37,194.25,209.37Z"/><ellipse class="cls-14" cx="256.47" cy="240.55" rx="6.3" ry="11.09"/><path class="cls-5" d="M245.34,207.05c9.91-4.87,24.68-1.4,24.56,7s-20.09,2.06-26.49-.21C238.28,212,242.12,208.64,245.34,207.05Z"/><path class="cls-13" d="M213.62,251.64c-1.15,13.13-6.81,10.87-5.66,16.19s4,6.23,7.23,8"/><path class="cls-13" d="M207.81,284.75c15.12,1.63,36.38-2.86,40.87-8.17"/><path class="cls-12" d="M218.56,295.15c9.24-.57,16.49-4.2,20.43-3.36s-.13,10.34-6.21,11.77C220.24,306.5,212.67,295.52,218.56,295.15Z"/><path class="cls-15" d="M311.72,216c-13.33,9.67-8.8,20-12.48,19.07s-4.7-55.8-25.73-64.79c6-6.86,9.84-16.09,12.16-23.31C309.71,175.08,311.72,216,311.72,216Z"/><path class="cls-16" d="M311.72,216c-13.33,9.67-8.8,20-12.48,19.07s-6.12-57.14-27.15-66.13c6-6.86,11.26-14.75,13.58-22C309.71,175.08,311.72,216,311.72,216Z"/><path class="cls-5" d="M275.49,166.21c-32,27.38-125.82,40.78-111.91,12.24s60.24-31.26,85.1-33.07C292.62,142.18,275.49,166.21,275.49,166.21Z"/></g></g></g><g id="Layer_3" data-name="Layer 3"><circle class="cls-1" cx="768.11" cy="769.79" r="248.25"/></g><g id="Layer_5" data-name="Layer 5"><circle class="cls-1" cx="763.67" cy="254.03" r="248.25"/></g><g id="Layer_6" data-name="Layer 6"><circle class="cls-1" cx="259.24" cy="769.79" r="248.25"/></g><g id="Layer_7" data-name="Layer 7"><circle class="cls-1" cx="1280.88" cy="784.49" r="248.25"/></g></g></g></g></g></g></svg>