<svg xmlns="http://www.w3.org/2000/svg" xmlns:xlink="http://www.w3.org/1999/xlink" viewBox="0 0 501 501"><defs><style>.cls-1{fill:#f27bab;}.cls-2{isolation:isolate;}.cls-3{clip-path:url(#clip-path);}.cls-4{clip-path:url(#clip-path-2);}.cls-5{clip-path:url(#clip-path-3);}.cls-6{fill:#383c3f;}.cls-7{fill:#b2b2b2;}.cls-13,.cls-7{mix-blend-mode:multiply;}.cls-8{fill:#7979aa;}.cls-9{fill:#4f4f84;}.cls-10,.cls-14{fill:none;stroke-miterlimit:10;}.cls-10{stroke:#fff;stroke-width:6.73px;opacity:0.26;}.cls-11{fill:#e89989;}.cls-12,.cls-13{fill:#f1b69a;}.cls-13{opacity:0.3;}.cls-14{stroke:#e07e61;stroke-linecap:round;stroke-width:2.24px;}.cls-15{fill:#150a08;}.cls-16{fill:#27292b;}</style><clipPath id="clip-path"/><clipPath id="clip-path-2"><circle class="cls-1" cx="-268.13" cy="-271.35" r="248.25"/></clipPath><clipPath id="clip-path-3"><circle class="cls-1" cx="249.73" cy="250.19" r="248.25"/></clipPath></defs><title>Artboard 4</title><g class="cls-2"><g id="Layer_17" data-name="Layer 17"><g id="Layer_18" data-name="Layer 18"><g class="cls-3"><g id="Layer_16" data-name="Layer 16"><g id="Layer_8" data-name="Layer 8"><circle class="cls-1" cx="756.51" cy="-263.26" r="248.25"/></g><g id="Layer_9" data-name="Layer 9"><circle class="cls-1" cx="-268.13" cy="-271.35" r="248.25"/></g><g id="Layer_3" data-name="Layer 3"><circle class="cls-1" cx="249.73" cy="250.19" r="248.25"/><g class="cls-5"><path class="cls-6" d="M363.39,219.24c-.94,38.19-44.48,70.35-63.92,85.75s-133.38-74.25-133.38-74.25c-12-25.19-43.77-69.57-25.73-79.74,6-3.36,17.26,7.54,18.74,9,0,0,0,0,0,0l.09.09c-.73-1.14-27.24-42.76-14.44-53.71s55.35-.46,57.14,0c-1.05-.55-26.49-14,0-19.43,27.11-5.55,89.16,13.9,116.49,42.6s22.33,50.65,22.33,50.65a12.56,12.56,0,0,1,2.33.37C349,182,364.12,188.51,363.39,219.24Z"/><path class="cls-7" d="M363.39,219.24c-.94,38.19-44.48,70.35-63.92,85.75s-133.38-74.25-133.38-74.25c-12-25.19-43.77-69.57-25.73-79.74,6-3.36,17.26,7.54,18.74,9,0,0,0,0,0,0,10.26,13.58,21.62,24.45,31.36,24.87,19.06.82,45.21-4.07,69.66-4.69s70,20.91,83,.37C349,182,364.12,188.51,363.39,219.24Z"/><path class="cls-8" d="M381.92,383c-6.63.23-13,1.85-18.51,5.64-23.75,16.46-18,31.15-26,54-5.14,14.79-4.87,41.44-4,58.39H185.44s-8.89-16.58-8.88-60c0-20.49,18.25-50.52,17-60,23.41-21.8,56.52-26.83,56.52-26.83,0,43.45,50.87,48.25,58.37,0C308.49,354.22,347.43,352.44,381.92,383Z"/><path class="cls-9" d="M321.75,354.21c3,43-27.59,55.3-46.18,54.32s-50.5-18.92-44.88-49.09C230.69,359.45,285,339.33,321.75,354.21Z"/><path class="cls-9" d="M356.56,408.54C327.4,423.75,335.45,501,335.45,501"/><path class="cls-10" d="M174.22,454.9c2.82-10.69,15.39-16.14,26.42-15.39s21.17,6,31.57,9.76,22.38,6,32.21.93,17.8-17,28.47-14.38c3.41.84,6.23,3.12,9.21,5,18,11.15,41.23,6.18,61.74.85"/><path class="cls-10" d="M169,483.34a55.63,55.63,0,0,1,48.71-7.88c11.4,3.62,22.5,11.07,34.26,8.89,9.21-1.71,16.44-9.06,25.46-11.56,9.64-2.67,19.78.51,29.59,2.45a118.78,118.78,0,0,0,50.26-.95c7.26-1.72,14.77-4.14,22-2.37"/><path class="cls-11" d="M184,254.53c-4-34.59-23.58-27.18-24.73-4.94S170.25,299,184,294.88Z"/><path class="cls-12" d="M308.5,290v64.2c-7.5,48.23-58.38,43.43-58.38,0V318.89Z"/><path class="cls-13" d="M308.49,290v30.08a105.89,105.89,0,0,1-10.33,10.4c-12.09,10.58-29.92,17-48,17.37v-29Z"/><path class="cls-12" d="M173.3,218.75c-1.73,21.87-3.47,72.91,22.34,103s66.09,27.47,90.74,5.92c16.58-14.5,36.36-47.78,35.33-82.06-1.3-42.95-21-55.92-52.16-62.91S176.19,182.19,173.3,218.75Z"/><path class="cls-13" d="M223.73,284.89c10.44,3.72,15.79-5.78,20.27-3s-3.66,14.43-15.09,7.61C223.78,286.5,220.7,283.81,223.73,284.89Z"/><path class="cls-12" d="M310,254.53c6.51-34.59,38.14-27.18,40-4.94s-17.68,49.41-40,45.3Z"/><path class="cls-13" d="M318.46,256.83c7.08-14.76,21.69-14.87,22.3-3.51S324,282,318.46,281.4,318.46,256.83,318.46,256.83Z"/><path class="cls-14" d="M318.46,259.53c3.79-14.24,15.47-16.91,20.2-11.63s.74,16.57-2.34,20.37"/><ellipse class="cls-15" cx="207.91" cy="256.78" rx="5.94" ry="10.46"/><path class="cls-6" d="M210.94,227.37c-6.31-5.82-15.53-4.61-15.29,3.14s12.66,4.6,16.63,3.36C215.46,232.89,213,229.27,210.94,227.37Z"/><ellipse class="cls-15" cx="269.63" cy="256.78" rx="5.94" ry="10.46"/><path class="cls-6" d="M259.13,225.19c9.34-4.59,23.28-1.32,23.16,6.59s-19,1.95-25-.2C252.47,229.86,256.09,226.68,259.13,225.19Z"/><path class="cls-14" d="M229.21,267.25c-1.08,12.38-6.42,10.26-5.34,15.27s3.73,5.88,6.82,7.51"/><path class="cls-14" d="M223.73,298.48c14.26,1.54,34.31-2.7,38.55-7.71"/><path class="cls-13" d="M233.87,308.29c8.71-.54,15.55-4,19.27-3.17s-.12,9.75-5.86,11.1C235.45,319,228.31,308.63,233.87,308.29Z"/><path class="cls-16" d="M321.75,233.76c-12.57,9.12-8.3,18.86-11.77,18s-4.43-52.63-24.27-61.11c5.62-6.47,9.28-15.18,11.47-22C319.86,195.2,321.75,233.76,321.75,233.76Z"/><path class="cls-6" d="M298.07,176.28c-6.76,25.07-49.08,29.23-64.19,30.62s-6.68-10.49-6.68-10.49-25.3,15.66-41.65,0S311.48,126.56,298.07,176.28Z"/><path class="cls-9" d="M424.27,501H333.38c0-79.48,6.29-95.92,30-112.38,5.46-3.79,11.88-5.42,18.51-5.64,0,0,0,0,0,0a125,125,0,0,1,23.36,27.84C424.66,441.89,424.27,501,424.27,501Z"/><path class="cls-9" d="M184.25,437.62c-4.23,42.31,1.19,63.4,1.19,63.4H148.6s-3.13-55.83,29.28-101.43a136.26,136.26,0,0,1,15.72-18.54C194.81,390.52,186.29,417.23,184.25,437.62Z"/></g></g><g id="Layer_5" data-name="Layer 5"><circle class="cls-1" cx="245.29" cy="-265.57" r="248.25"/></g><g id="Layer_6" data-name="Layer 6"><circle class="cls-1" cx="-259.14" cy="250.19" r="248.25"/></g><g id="Layer_7" data-name="Layer 7"><circle class="cls-1" cx="762.5" cy="264.88" r="248.25"/></g></g></g></g></g></g></svg>