<svg xmlns="http://www.w3.org/2000/svg" xmlns:xlink="http://www.w3.org/1999/xlink" viewBox="0 0 501 501"><defs><style>.cls-1{fill:#f27bab;}.cls-2{isolation:isolate;}.cls-3{clip-path:url(#clip-path);}.cls-4{clip-path:url(#clip-path-2);}.cls-5{fill:#7979aa;}.cls-6{fill:#fff;}.cls-12,.cls-7{fill:none;stroke-miterlimit:10;}.cls-7{stroke:#3d3d72;stroke-width:3px;}.cls-8{fill:#2d2d2d;}.cls-9{fill:#e89989;}.cls-10,.cls-11{fill:#f1b69a;}.cls-11,.cls-15{opacity:0.3;mix-blend-mode:multiply;}.cls-12{stroke:#e07e61;stroke-linecap:round;stroke-width:2.29px;}.cls-13{fill:#150a08;}.cls-14,.cls-15{fill:#383c3f;}.cls-16{clip-path:url(#clip-path-3);}</style><clipPath id="clip-path"/><clipPath id="clip-path-2"><circle class="cls-1" cx="251.9" cy="250.96" r="248.25"/></clipPath><clipPath id="clip-path-3"><circle class="cls-1" cx="-772.74" cy="242.87" r="248.25"/></clipPath></defs><title>Artboard 9</title><g class="cls-2"><g id="Layer_17" data-name="Layer 17"><g id="Layer_18" data-name="Layer 18"><g class="cls-3"><g id="Layer_16" data-name="Layer 16"><g id="Layer_8" data-name="Layer 8"><circle class="cls-1" cx="251.9" cy="250.96" r="248.25"/><g class="cls-4"><path class="cls-5" d="M426.91,500.43H145.33s-3.18-57.05,29.91-103.61C209.56,348.54,249,350.49,249,350.49c0,44.36,52,49.27,59.63,0,0,0,61-2.82,98.88,57.82C427.33,440,426.91,500.43,426.91,500.43Z"/><path class="cls-6" d="M322.21,350.47c15.8,20.76-12,66-12,66L275,393.87l-33.26,19.4s-14.34-30.45-4.76-62.8C237,350.47,288.17,339.25,322.21,350.47Z"/><path class="cls-7" d="M357.76,406C328,421.5,336.2,500.43,336.2,500.43"/><path class="cls-7" d="M193.39,413.27c-15.31,31.07-11.84,87.16-11.84,87.16"/><path class="cls-8" d="M303.79,301.92s20.64,13.37,37.84-1.72,9.53-31.08,9.53-31.08,27.83-11.44,27.16-39.83-21.82-36.17-21.82-36.17,21.17-16.5,7.5-40.5c-12.16-21.35-27.64-16.93-27.64-16.93s8.8-37.3-26.18-38.3c-31.05-.89-32.84,20.88-32.84,20.88l-132.1,27.19s-25.08,14.33-23.08,41,23.08,23.9,23.08,23.9-15.08,12.19-7.74,28.81,22.33,18.48,22.33,18.48Z"/><path class="cls-9" d="M181.55,248.65c-4.11-35.33-24.08-27.76-25.26-5s11.16,50.47,25.26,46.27Z"/><path class="cls-10" d="M308.67,284.92v65.58c-7.66,49.27-59.63,44.36-59.63,0v-36.1Z"/><path class="cls-11" d="M308.66,284.92v30.72a108.15,108.15,0,0,1-10.55,10.62C285.76,337.07,267.55,343.68,249,344V314.4Z"/><path class="cls-10" d="M170.57,212.11c-1.76,22.34-3.54,74.48,22.82,105.23s67.51,28.06,92.69,6c16.94-14.81,37.14-48.8,36.08-83.81-1.32-43.87-21.42-57.12-53.28-64.26S173.52,174.77,170.57,212.11Z"/><path class="cls-11" d="M222.08,279.66c10.66,3.8,16.13-5.9,20.7-3s-3.74,14.73-15.42,7.78C222.14,281.31,219,278.56,222.08,279.66Z"/><path class="cls-10" d="M310.18,248.65c6.65-35.33,39-27.76,40.86-5S333,294.08,310.18,289.87Z"/><path class="cls-11" d="M318.84,251c7.24-15.08,22.16-15.19,22.78-3.59s-17.15,29.27-22.78,28.68S318.84,251,318.84,251Z"/><path class="cls-12" d="M318.84,253.76c3.87-14.54,15.8-17.27,20.63-11.88s.76,16.92-2.39,20.8"/><ellipse class="cls-13" cx="205.92" cy="250.96" rx="6.07" ry="10.69"/><path class="cls-14" d="M209,220.92c-6.45-5.95-15.86-4.71-15.62,3.21s12.93,4.7,17,3.44C213.64,226.55,211.11,222.85,209,220.92Z"/><ellipse class="cls-13" cx="268.96" cy="250.96" rx="6.07" ry="10.69"/><path class="cls-14" d="M258.24,218.68c9.54-4.69,23.78-1.35,23.66,6.73s-19.36,2-25.52-.21C251.44,223.45,255.14,220.21,258.24,218.68Z"/><path class="cls-12" d="M227.68,261.64c-1.11,12.65-6.56,10.47-5.45,15.6s3.81,6,7,7.68"/><path class="cls-12" d="M222.08,293.54c14.57,1.58,35-2.76,39.38-7.88"/><path class="cls-11" d="M232.44,303.56c8.9-.55,15.88-4,19.68-3.24s-.13,10-6,11.34C234.06,314.49,226.76,303.91,232.44,303.56Z"/><path class="cls-14" d="M322.2,227.27c-12.84,9.31-8.47,19.26-12,18.37s-4.53-53.76-24.79-62.42c5.74-6.61,9.48-15.5,11.72-22.46C320.26,187.88,322.2,227.27,322.2,227.27Z"/><path class="cls-15" d="M322.2,227.27c-12.84,9.31-8.47,19.26-12,18.37s-4.53-53.76-24.79-62.42c5.74-6.61,9.48-15.5,11.72-22.46C320.26,187.88,322.2,227.27,322.2,227.27Z"/><path class="cls-14" d="M163.78,238.92s-16.36.55-24.35-17,8.86-27.43,8.86-27.43-23.39-3.58-21.13-29.3,22.28-26.42,22.28-26.42-13.27-24,11.65-37.38,37.4,7.76,37.4,7.76S198,86.57,221,83s28.67,14.81,28.67,14.81S254.72,80.22,278,88s16.51,31.74,16.51,31.74,27-.71,27.65,19-18.6,19.46-18.6,19.46,29,2.41,25.46,29.21c-1.76,13.4-8.12,17.81-14,18.87a17,17,0,0,1-15.37-5.5l-21.24-22.9s-11,20.84-33.25,18.7c-18.3-1.76-23-16-23-16s2.47,19.87-11.32,26.26c-17.87,8.29-29.21-3.65-29.21-3.65S189.72,239.07,163.78,238.92Z"/></g></g><g id="Layer_9" data-name="Layer 9"><circle class="cls-1" cx="-772.74" cy="242.87" r="248.25"/></g><g id="Layer_3" data-name="Layer 3"><circle class="cls-1" cx="-254.88" cy="764.41" r="248.25"/></g><g id="Layer_5" data-name="Layer 5"><circle class="cls-1" cx="-259.33" cy="248.65" r="248.25"/></g><g id="Layer_6" data-name="Layer 6"><circle class="cls-1" cx="-763.76" cy="764.41" r="248.25"/></g><g id="Layer_7" data-name="Layer 7"><circle class="cls-1" cx="257.89" cy="779.1" r="248.25"/></g></g></g></g></g></g></svg>