<svg xmlns="http://www.w3.org/2000/svg" xmlns:xlink="http://www.w3.org/1999/xlink" viewBox="0 0 501 501"><defs><style>.cls-1{fill:#f27bab;}.cls-2{isolation:isolate;}.cls-3{clip-path:url(#clip-path);}.cls-4{clip-path:url(#clip-path-2);}.cls-5{clip-path:url(#clip-path-3);}.cls-6{fill:#383c3f;}.cls-18,.cls-7{fill:#5b4648;}.cls-13,.cls-20,.cls-7{opacity:0.3;}.cls-13,.cls-18,.cls-20,.cls-7{mix-blend-mode:multiply;}.cls-8{fill:#4f4f84;}.cls-9{fill:#fff;}.cls-10,.cls-14,.cls-17,.cls-19{fill:none;}.cls-10{stroke:#3d3d72;stroke-width:3px;}.cls-10,.cls-14,.cls-17{stroke-miterlimit:10;}.cls-11{fill:#e89989;}.cls-12,.cls-13{fill:#f1b69a;}.cls-14{stroke:#e07e61;stroke-linecap:round;}.cls-14,.cls-17{stroke-width:2.4px;}.cls-15{fill:#150a08;}.cls-16{fill:#895a5c;}.cls-17{stroke:#fff;}.cls-20{fill:#493a3a;}.cls-21{fill:#7979aa;}</style><clipPath id="clip-path"/><clipPath id="clip-path-2"><circle class="cls-1" cx="242.67" cy="-270.85" r="248.25"/></clipPath><clipPath id="clip-path-3"><circle class="cls-1" cx="251.66" cy="250.69" r="248.25"/></clipPath></defs><title>Artboard 3</title><g class="cls-2"><g id="Layer_17" data-name="Layer 17"><g id="Layer_18" data-name="Layer 18"><g class="cls-3"><g id="Layer_16" data-name="Layer 16"><g id="Layer_8" data-name="Layer 8"><circle class="cls-1" cx="1267.31" cy="-262.76" r="248.25"/></g><g id="Layer_9" data-name="Layer 9"><circle class="cls-1" cx="242.67" cy="-270.85" r="248.25"/></g><g id="Layer_3" data-name="Layer 3"><circle class="cls-1" cx="760.53" cy="250.69" r="248.25"/></g><g id="Layer_5" data-name="Layer 5"><circle class="cls-1" cx="756.09" cy="-265.06" r="248.25"/></g><g id="Layer_6" data-name="Layer 6"><circle class="cls-1" cx="251.66" cy="250.69" r="248.25"/><g class="cls-5"><path class="cls-6" d="M482.89,418.36c-4,13.75-17.36,28.57-40.44,42.57-60.13,36.46-238.59,62.91-287,25.57s11-114.08,26.4-136.86c20.12-29.8-26.4-91.85-26.4-91.85C117.21,220,130.88,166,162.83,148.64a45.33,45.33,0,0,1,11.87-4.52s11.11-52.73,81-44.91,102.4,43,112.05,85.77-17.63,85.77-13.21,120.72,12.19,48.87,77.15,62.74C471.73,377,489.34,396.28,482.89,418.36Z"/><path class="cls-7" d="M482.89,418.36c-4,13.75-17.36,28.57-40.44,42.57-60.13,36.46-238.59,62.91-287,25.57s11-114.08,26.4-136.86c20.12-29.8-26.4-91.85-26.4-91.85C117.21,220,130.88,166,162.83,148.64c3.71,1.88,7.2,4.2,11.14,5.57,12.14,4.13,25.57-2,35-10.67,3.08-2.83,6.33-6.13,10.5-6.42a16.83,16.83,0,0,1,6.86,1.54q35.83,13.52,71.63,27.06c11.67,4.42,23.89,9.21,31.9,18.78C339.5,196,341.11,212,341.8,227c.85,18,.9,36.49-4.44,53.78-3.64,11.8-9.72,22.79-12.55,34.8s-1.76,26.08,7.11,34.68c6.4,6.18,15.51,8.38,24.06,10.75a288.63,288.63,0,0,1,39.61,14.16,22.58,22.58,0,0,1,6.91,4.15c2.76,2.74,4,6.67,4.52,10.5,1.37,9.79-1.17,19.68-1.1,29.55s3.91,21,13.09,24.59c4.84,1.93,10.28,1.37,15.36.27,12.7-2.76,23.23-8.94,33.41-16.73C471.07,425,477.17,419.65,482.89,418.36Z"/><path class="cls-8" d="M427.3,506.51H132.71s-3.33-59.69,31.3-108.39c35.9-50.51,77.2-48.47,77.2-48.47,0,46.41,54.37,51.54,62.38,0,0,0,63.87-3,103.45,60.5C427.74,443.32,427.3,506.51,427.3,506.51Z"/><path class="cls-9" d="M324.85,351.85l-69.36,97.6L216.73,354.7S263.61,332.54,324.85,351.85Z"/><path class="cls-10" d="M355,407.68c-31.17,16.25-22.56,98.84-22.56,98.84"/><path class="cls-10" d="M183,415.32c-16,32.51-12.39,91.19-12.39,91.19"/><path class="cls-11" d="M170.61,243.1c-4.3-37-25.19-29-26.42-5.28s11.68,52.8,26.42,48.4Z"/><path class="cls-12" d="M303.6,281v68.61c-8,51.54-62.38,46.41-62.38,0V311.88Z"/><path class="cls-13" d="M303.59,281v32.14a113.13,113.13,0,0,1-11,11.11c-12.92,11.31-32,18.22-51.34,18.56v-31Z"/><path class="cls-12" d="M159.12,204.87C157.28,228.24,155.42,282.79,183,315s70.62,29.35,97,6.32c17.72-15.49,38.86-51.06,37.75-87.69-1.38-45.89-22.41-59.76-55.74-67.23S162.21,165.8,159.12,204.87Z"/><path class="cls-13" d="M213,275.55c11.15,4,16.87-6.18,21.66-3.16s-3.91,15.42-16.13,8.14C213.07,277.27,209.77,274.39,213,275.55Z"/><path class="cls-12" d="M305.18,243.1c7-37,40.76-29,42.75-5.28s-18.89,52.8-42.75,48.4Z"/><path class="cls-13" d="M314.24,245.56c7.57-15.77,23.18-15.89,23.83-3.75s-17.94,30.62-23.83,30S314.24,245.56,314.24,245.56Z"/><path class="cls-14" d="M314.24,248.45c4-15.21,16.53-18.07,21.58-12.42s.79,17.71-2.51,21.76"/><ellipse class="cls-15" cx="196.11" cy="245.51" rx="6.35" ry="11.18"/><path class="cls-6" d="M199.34,214.08c-6.75-6.22-16.59-4.92-16.34,3.36s13.52,4.92,17.77,3.59C204.18,220,201.54,216.11,199.34,214.08Z"/><ellipse class="cls-15" cx="262.06" cy="245.51" rx="6.35" ry="11.18"/><path class="cls-16" d="M250.84,211.75c10-4.91,24.88-1.41,24.75,7s-20.25,2.08-26.7-.22C243.73,216.74,247.59,213.34,250.84,211.75Z"/><path class="cls-14" d="M218.87,256.69c-1.16,13.23-6.86,11-5.7,16.32s4,6.28,7.29,8"/><path class="cls-14" d="M213,290.06c15.24,1.65,36.67-2.88,41.2-8.24"/><path class="cls-13" d="M223.84,300.55c9.31-.58,16.62-4.24,20.59-3.39s-.13,10.42-6.26,11.86C225.54,312,217.91,300.92,223.84,300.55Z"/><path class="cls-15" d="M262.06,234.33a54.14,54.14,0,0,0,13.54,0l-10.48,7.75Z"/><path class="cls-15" d="M196.52,234.33a54.14,54.14,0,0,1-13.54,0l10.48,7.75Z"/><circle class="cls-17" cx="260.98" cy="242.08" r="22.4"/><ellipse class="cls-17" cx="192.98" cy="242.08" rx="19.17" ry="22.4"/><path class="cls-17" d="M238.58,242.08c-5.15-13.48-27.8-8.74-26.47,3.43"/><line class="cls-17" x1="283.39" y1="236.44" x2="317.76" y2="219.67"/><path class="cls-6" d="M238.22,160.75a119.32,119.32,0,0,1-.39,12.75c-5.32,64.82-60.79,73-83.89,67-.83-.2-1.61-.44-2.34-.68-24-8.11-10.48-60.1,21.93-79.28,30.58-18.07,58.44-31.8,63.21-16.71a13.52,13.52,0,0,1,.63,3C237.88,151.69,238.15,156.35,238.22,160.75Z"/><path class="cls-18" d="M314.24,225.17C306,232.55,303.56,246,303.56,246s-2.1-45.12,10.48-55.11l5.33,28.89Z"/><path class="cls-6" d="M319.38,219.78c-13.31.42-62.86-16.31-81.55-46.28a47.3,47.3,0,0,1-6.13-14.38,39.53,39.53,0,0,1-.9-5.4c-.64-6.33,1.56-9.23,5.93-9.92,10.16-1.61,32.14,8.6,58.37,15,13.68,3.32,22.74,12.26,27.94,22.3C332.15,198.58,329.54,219.46,319.38,219.78Z"/><path class="cls-19" d="M321.72,167.47l-1.61-1.71A8.18,8.18,0,0,1,321.72,167.47Z"/><path class="cls-20" d="M319.38,219.78c-13.31.42-62.86-16.31-81.55-46.28-1.87,22.82-11.33,45-31.16,57.63a70.29,70.29,0,0,1-24.39,9.59c-3.81.74-7.6.91-11.44,1.33-4.18.46-12.8-1.15-16,.09q15.12-5.82,29.9-12.46c8.76-3.93,17.58-8.18,24.66-14.67,9.57-8.78,15-20.83,18.32-33.17,2.42-8.94,1.48-25,7.15-32a74.18,74.18,0,0,0,3.37,10.93c9.43,21.81,35.9,35.14,60.4,33.58,7.69-.49,15.83-2.39,21.15-8a15.72,15.72,0,0,0,3.27-5.28C332.15,198.58,329.54,219.46,319.38,219.78Z"/><path class="cls-21" d="M216.73,354.7c-9-7.74-21.88-6-33.73,7.44s72.91,115.13,72.91,115.13,90.16-84,99-99,6.2-19.7,0-24.17-26-9.3-30.11-2.25-69.36,97.6-69.36,97.6Z"/></g></g><g id="Layer_7" data-name="Layer 7"><circle class="cls-1" cx="1273.3" cy="265.39" r="248.25"/></g></g></g></g></g></g></svg>